@startuml
class ShaderGraphImporter {
    + <<const>> Extension : string = "shadergraph"
    + <<const>> LegacyExtension : string = "ShaderGraph"
    + <<const>> k_ErrorShader : string = @"
Shader ""Hidden/GraphErrorShader2""
{
    SubShader
    {
        Pass
        {
            CGPROGRAM
            #pragma vertex vert
            #pragma fragment frag
            #pragma target 2.0
            #pragma multi_compile _ UNITY_SINGLE_PASS_STEREO STEREO_INSTANCING_ON STEREO_MULTIVIEW_ON
            #include ""UnityCG.cginc""

            struct appdata_t {
                float4 vertex : POSITION;
                UNITY_VERTEX_INPUT_INSTANCE_ID
            &#125;;

            struct v2f {
                float4 vertex : SV_POSITION;
                UNITY_VERTEX_OUTPUT_STEREO
            &#125;;

            v2f vert (appdata_t v)
            {
                v2f o;
                UNITY_SETUP_INSTANCE_ID(v);
                UNITY_INITIALIZE_VERTEX_OUTPUT_STEREO(o);
                o.vertex = UnityObjectToClipPos(v.vertex);
                return o;
            &#125;
            fixed4 frag (v2f i) : SV_Target
            {
                return fixed4(1,0,1,1);
            &#125;
            ENDCG
        &#125;
    &#125;
    Fallback Off
&#125;"
    {static} GatherDependenciesFromSourceFile(assetPath:string) : string[]
    + <<override>> OnImportAsset(ctx:AssetImportContext) : void
    {static} NodeWasUsedByGraph(nodeId:string, graphData:GraphData) : bool
    {static} ReportErrors(graph:GraphData, shader:Shader, path:string, importLog:AssetImportErrorLog) : void
}
class AssetImportErrorLog {
    + AssetImportErrorLog(ctx:AssetImportContext)
    + LogError(message:string, context:UnityEngine.Object) : void
    + LogWarning(message:string, context:UnityEngine.Object) : void
}
ScriptedImporter <|-- ShaderGraphImporter
ShaderGraphImporter +-- AssetImportErrorLog
AssetImportErrorLog --> "ctx" AssetImportContext
@enduml
