@startuml
class BoneVisibilityToolData {
    m_AllVisibility : bool = true
    m_PreviousVisibility : bool = true
    + allVisibility : bool <<get>> <<set>>
    + previousVisiblity : bool <<get>> <<set>>
}
class BoneTreeWidgetModel {
    + <<virtual>> GetAllVisibility() : bool
    + GetBoneSelection() : SkeletonSelection
    + GetExpandedBones() : BoneCache[]
    + GetDepth(bone:BoneCache) : int
    + GetBoneColor(bone:BoneCache) : Color
    + GetSelectedSkeleton() : SkeletonCache
    + GetVisibility(bone:BoneCache) : bool
    + SelectBones(bones:BoneCache[]) : void
    + SetExpandedBones(bones:BoneCache[]) : void
    + <<virtual>> SetAllVisibility(skeleton:SkeletonCache, visibility:bool) : void
    + {static} SetAllBoneVisibility(skeleton:SkeletonCache, visibility:bool) : void
    + SetBoneParent(newParent:BoneCache, bone:BoneCache, insertAtIndex:int) : void
    + SetDepth(bone:BoneCache, depth:int) : void
    + SetBoneColor(bone:BoneCache, color:Color) : void
    + SetName(bone:BoneCache, name:string) : void
    + SetVisibility(bone:BoneCache, visibility:bool) : void
    + UndoScope(value:string) : UndoScope
    + hasCharacter : bool <<get>>
}
interface IBoneTreeViewModel {
    SetVisibility(bone:BoneCache, visibility:bool) : void
    GetVisibility(bone:BoneCache) : bool
    SetName(bone:BoneCache, name:string) : void
    SetBoneParent(newParent:BoneCache, bone:BoneCache, insertAtIndex:int) : void
    GetDepth(bone:BoneCache) : int
    SetDepth(bone:BoneCache, depth:int) : void
    GetBoneColor(bone:BoneCache) : Color
    SetBoneColor(bone:BoneCache, color:Color) : void
    SetAllVisibility(skeleton:SkeletonCache, visibility:bool) : void
    GetAllVisibility() : bool
    SelectBones(bones:BoneCache[]) : void
    SetExpandedBones(bones:BoneCache[]) : void
    GetBoneSelection() : SkeletonSelection
    GetExpandedBones() : BoneCache[]
    GetSelectedSkeleton() : SkeletonCache
    hasCharacter : bool <<get>>
    UndoScope(value:string) : UndoScope
}
CacheObject <|-- BoneVisibilityToolData
IBoneTreeViewModel <|-- BoneTreeWidgetModel
BoneTreeWidgetModel --> "skinningCache" SkinningCache
BoneTreeWidgetModel --> "view" IBoneVisibilityToolView
BoneTreeWidgetModel --> "mode" SkinningMode
IBoneTreeViewModel --> "view" IBoneVisibilityToolView
IBoneTreeViewModel --> "mode" SkinningMode
@enduml
