@startuml
class float3x3 <<struct>> {
    + float3x3(c0:float3, c1:float3, c2:float3)
    + float3x3(m00:float, m01:float, m02:float, m10:float, m11:float, m12:float, m20:float, m21:float, m22:float)
    + float3x3(v:float)
    + float3x3(v:bool)
    + float3x3(v:bool3x3)
    + float3x3(v:int)
    + float3x3(v:int3x3)
    + float3x3(v:uint)
    + float3x3(v:uint3x3)
    + float3x3(v:double)
    + float3x3(v:double3x3)
    + Equals(rhs:float3x3) : bool
    + <<override>> Equals(o:object) : bool
    + <<override>> GetHashCode() : int
    + <<override>> ToString() : string
    + ToString(format:string, formatProvider:IFormatProvider) : string
}
class math <<static>> <<partial>> {
    + {static} float3x3(c0:float3, c1:float3, c2:float3) : float3x3
    + {static} float3x3(m00:float, m01:float, m02:float, m10:float, m11:float, m12:float, m20:float, m21:float, m22:float) : float3x3
    + {static} float3x3(v:float) : float3x3
    + {static} float3x3(v:bool) : float3x3
    + {static} float3x3(v:bool3x3) : float3x3
    + {static} float3x3(v:int) : float3x3
    + {static} float3x3(v:int3x3) : float3x3
    + {static} float3x3(v:uint) : float3x3
    + {static} float3x3(v:uint3x3) : float3x3
    + {static} float3x3(v:double) : float3x3
    + {static} float3x3(v:double3x3) : float3x3
    + {static} transpose(v:float3x3) : float3x3
    + {static} inverse(m:float3x3) : float3x3
    + {static} determinant(m:float3x3) : float
    + {static} hash(v:float3x3) : uint
    + {static} hashwide(v:float3x3) : uint3
}
class "IEquatable`1"<T> {
}
IFormattable <|-- float3x3
float3x3 --> "c0" float3
float3x3 --> "c1" float3
float3x3 --> "c2" float3
float3x3 o-> "identity" float3x3
float3x3 --> "zero" float3x3
@enduml
