@startuml
class IconTextButton {
    + <<const>> ussClassName : string = "unity-icon-text-button"
    + <<const>> imageUssClassName : string
    + <<const>> textUssClassName : string
    {static} <<readonly>> k_StylePath : string
    +  <<event>> Clicked : Action 
    + IconTextButton()
    + IconTextButton(clickEvent:Action)
    OnClick() : void
    + Text : string <<get>> <<set>>
    + <<override>> canGrabFocus : bool <<get>> = true
}
class UxmlFactory <<new>> {
}
class UxmlTraits <<new>> {
    + <<override>> Init(ve:VisualElement, bag:IUxmlAttributes, cc:CreationContext) : void
}
class "UxmlFactory`2"<T1,T2> {
}
VisualElement <|-- IconTextButton
IconTextButton --> "m_TextElement" TextElement
IconTextButton --> "m_Image" VisualElement
IconTextButton --> "Image" Texture2D
IconTextButton +-- UxmlFactory
"UxmlFactory`2" "<IconTextButton,UxmlTraits>" <|-- UxmlFactory
IconTextButton +-- UxmlTraits
UxmlTraits o-> "m_Text" UxmlStringAttributeDescription
@enduml
